<svg width="24" height="24" viewBox="0 0 24 24" fill="none" xmlns="http://www.w3.org/2000/svg">
<g id="Download">
<g id="Icon">
<path d="M3.60002 1.19995C2.93728 1.19995 2.40002 1.73721 2.40002 2.39995C2.40002 3.06269 2.93728 3.59995 3.60002 3.59995H5.06309L5.42977 5.06664C5.43361 5.0836 5.43782 5.10042 5.44238 5.1171L7.07106 11.6318L5.99997 12.7029C4.48805 14.2148 5.55885 16.8 7.69702 16.8H18C18.6627 16.8 19.2 16.2627 19.2 15.6C19.2 14.9372 18.6627 14.4 18 14.4L7.69702 14.3999L8.89702 13.2H16.8C17.2546 13.2 17.6701 12.9431 17.8733 12.5366L21.4733 5.33661C21.6593 4.96462 21.6395 4.52285 21.4208 4.16907C21.2022 3.81529 20.8159 3.59995 20.4 3.59995H7.53696L7.1642 2.10891C7.03065 1.57471 6.55067 1.19995 6.00002 1.19995H3.60002Z" fill="white"/>
<path d="M19.2 19.7999C19.2 20.7941 18.3941 21.6 17.4 21.6C16.4059 21.6 15.6 20.7941 15.6 19.7999C15.6 18.8058 16.4059 18 17.4 18C18.3941 18 19.2 18.8058 19.2 19.7999Z" fill="white"/>
<path d="M7.80002 21.6C8.79414 21.6 9.60002 20.7941 9.60002 19.7999C9.60002 18.8058 8.79414 18 7.80002 18C6.80591 18 6.00002 18.8058 6.00002 19.7999C6.00002 20.7941 6.80591 21.6 7.80002 21.6Z" fill="white"/>
</g>
</g>
</svg>
