<svg width="32" height="32" viewBox="0 0 32 32" fill="none" xmlns="http://www.w3.org/2000/svg">
<path d="M27.4193 9.50846C27.047 8.62621 26.51 7.82672 25.8386 7.15475C25.1667 6.48077 24.3745 5.94517 23.505 5.57708C22.6035 5.19387 21.6365 4.99772 20.6602 5.00002C19.2906 5.00002 17.9544 5.38378 16.7931 6.10865C16.5153 6.28206 16.2514 6.47251 16.0014 6.68003C15.7513 6.47251 15.4874 6.28206 15.2096 6.10865C14.0484 5.38378 12.7121 5.00002 11.3425 5.00002C10.3563 5.00002 9.40062 5.19332 8.49774 5.57708C7.62542 5.94662 6.83921 6.4782 6.16414 7.15475C5.49183 7.82596 4.95477 8.62564 4.5834 9.50846C4.19724 10.4266 4 11.4017 4 12.4051C4 13.3517 4.18891 14.3381 4.56395 15.3416C4.87788 16.1802 5.32793 17.05 5.903 17.9284C6.81421 19.3184 8.06713 20.7682 9.62287 22.2379C12.2009 24.674 14.754 26.3569 14.8624 26.4251L15.5208 26.8572C15.8125 27.0476 16.1875 27.0476 16.4792 26.8572L17.1376 26.4251C17.246 26.354 19.7963 24.674 22.3771 22.2379C23.9328 20.7682 25.1858 19.3184 26.097 17.9284C26.672 17.05 27.1249 16.1802 27.436 15.3416C27.8111 14.3381 28 13.3517 28 12.4051C28.0028 11.4017 27.8055 10.4266 27.4193 9.50846ZM16.0014 24.6086C16.0014 24.6086 6.11135 18.1245 6.11135 12.4051C6.11135 9.50846 8.45329 7.16043 11.3425 7.16043C13.3733 7.16043 15.1346 8.32024 16.0014 10.0145C16.8681 8.32024 18.6295 7.16043 20.6602 7.16043C23.5495 7.16043 25.8914 9.50846 25.8914 12.4051C25.8914 18.1245 16.0014 24.6086 16.0014 24.6086Z" fill="#937DC2"/>
</svg>
